<svg width="19" height="19" viewBox="0 0 19 19" fill="none" xmlns="http://www.w3.org/2000/svg">
<path d="M18.3327 9.35616C18.3327 11.7897 17.3435 13.9922 15.7453 15.5835C14.1561 17.1657 11.9648 18.1437 9.54512 18.1437C4.69189 18.1437 0.757568 14.2094 0.757568 9.35616C0.757568 7.01054 1.67657 4.8796 3.17415 3.30373C4.77519 1.61896 7.03751 0.568604 9.54512 0.568604C11.9648 0.568604 14.1561 1.54658 15.7453 3.12884C17.3435 4.72015 18.3327 6.92262 18.3327 9.35616Z" fill="#2F88FF" stroke="black" stroke-width="0.878755" stroke-linecap="round" stroke-linejoin="round"/>
<path d="M18.3327 9.35608C17.0504 9.35608 13.5132 8.87245 10.3476 10.2626C6.90884 11.7727 4.41863 14.1152 3.33362 15.572" stroke="white" stroke-width="0.878755" stroke-linecap="round" stroke-linejoin="round"/>
<path d="M6.24963 1.20728C7.62506 2.47659 10.626 5.70859 11.7419 8.9167C12.8577 12.1248 13.2713 16.0694 13.526 17.1922" stroke="white" stroke-width="0.878755" stroke-linecap="round" stroke-linejoin="round"/>
<path d="M0.825073 8.25782C2.48494 8.35786 6.87908 8.44816 9.6911 7.2472C12.5031 6.04625 14.9229 3.8375 15.7528 3.13696" stroke="white" stroke-width="0.878755" stroke-linecap="round" stroke-linejoin="round"/>
<path d="M1.4165 12.7012C2.19054 14.58 3.59705 16.1317 5.3709 17.091" stroke="black" stroke-width="0.878755" stroke-linecap="round" stroke-linejoin="round"/>
<path d="M0.757324 9.35614C0.757324 7.01056 1.67632 4.87958 3.1739 3.30371" stroke="black" stroke-width="0.878755" stroke-linecap="round" stroke-linejoin="round"/>
<path d="M9.54505 0.568604C7.03743 0.568604 4.77512 1.61896 3.17407 3.30373" stroke="black" stroke-width="0.878755" stroke-linecap="round" stroke-linejoin="round"/>
<path d="M13.0601 1.2998C14.0677 1.74006 14.9768 2.36382 15.7452 3.12884C17.3434 4.72015 18.3326 6.92262 18.3326 9.35615C18.3326 10.4382 18.137 11.4745 17.7793 12.4318" stroke="black" stroke-width="0.878755" stroke-linecap="round" stroke-linejoin="round"/>
<path d="M9.54492 18.1437C11.9646 18.1437 14.1559 17.1657 15.7451 15.5835" stroke="black" stroke-width="0.878755" stroke-linecap="round" stroke-linejoin="round"/>
</svg>
