<svg width="22" height="14" viewBox="0 0 22 14" fill="none" xmlns="http://www.w3.org/2000/svg">
<path d="M8.66723 5.35511C8.9952 5.15582 9.16126 4.79462 9.16126 4.28812C9.16126 3.72765 8.94126 3.34988 8.50533 3.16719C8.13996 3.04267 7.66667 2.98039 7.10207 2.98039H3.95931V5.64986H7.401C7.91579 5.64986 8.3434 5.55021 8.66723 5.35511ZM8.32682 4.28812C8.32682 4.47909 8.29364 4.60365 8.23136 4.64101C8.0404 4.75723 7.76223 4.81538 7.39688 4.81538H4.79383V3.81483H7.10213C7.56297 3.81483 7.93659 3.86047 8.21058 3.94767C8.2521 3.96843 8.3268 4.00163 8.3268 4.2881V4.28812H8.32682ZM8.62993 7.74223C8.34763 7.61353 7.94491 7.54294 7.43842 7.5388H3.95937V10.7522H7.3969C7.91169 10.7522 8.31856 10.6816 8.60501 10.5404C9.13227 10.2789 9.39795 9.7724 9.39795 9.03756C9.40213 8.41483 9.14473 7.9789 8.62993 7.74225V7.74223ZM4.79383 8.37328H7.43838C7.94487 8.37745 8.18566 8.45631 8.2853 8.50199C8.43477 8.57257 8.56761 8.66387 8.56761 9.03752C8.56761 9.6312 8.34342 9.73914 8.23548 9.79314C8.1566 9.8305 7.92411 9.91768 7.39686 9.91768H4.79381V8.37328H4.79383ZM18.3779 6.13555C18.0084 5.82002 17.5476 5.6581 17.0037 5.6581C16.4142 5.6581 15.9451 5.82832 15.6171 6.16875C15.2891 6.50504 15.0815 6.96585 15.0027 7.53878L14.9985 7.57617H19.0048L19.0006 7.54294C18.955 6.92435 18.7474 6.45108 18.3779 6.13555ZM16.2232 6.73752C16.2938 6.66694 16.4847 6.48842 17.0037 6.48842C17.3275 6.48842 17.5891 6.57146 17.8008 6.73752H16.2232ZM22.052 7.19419C21.9275 6.39293 21.6493 5.6747 21.2259 5.0561C20.8356 4.47489 20.3499 4.01819 19.7728 3.68607V0.373081H14.2429V3.71929C13.9066 3.92269 13.5994 4.16352 13.3129 4.44996C12.6611 5.10592 12.2335 5.9487 12.0218 6.96167C11.8681 6.73748 11.6854 6.53406 11.482 6.35553C11.5059 6.32816 11.5294 6.30049 11.5526 6.27251C12.0383 5.68714 12.2833 4.93156 12.2833 4.02235C12.2833 3.15467 12.0508 2.39077 11.5899 1.75144C10.8385 0.72597 9.60134 0.190438 7.91575 0.161377H0.83313V13.5711H7.4923C8.13998 13.5711 8.75853 13.5129 9.32317 13.3925C9.9542 13.2597 10.5105 13.0106 10.9797 12.6494C11.3948 12.338 11.7394 11.9519 12.0134 11.4994C12.1213 11.3292 12.2168 11.1507 12.2957 10.9638C12.5697 11.6323 12.9682 12.1844 13.4997 12.612C14.5293 13.4424 15.7332 13.8617 17.0783 13.8617C18.714 13.8617 20.0177 13.3469 20.9517 12.3297C21.5703 11.6738 21.9232 10.9929 22.0063 10.3038L22.0602 9.83878H22.1184L22.1308 9.04998C22.1516 8.27778 22.1225 7.65089 22.0519 7.19421H22.052V7.19419ZM10.0207 6.40535L9.95429 6.43853L10.0249 6.46345C10.6185 6.67934 11.0711 7.02393 11.3741 7.49308C11.6772 7.96221 11.8308 8.53927 11.8308 9.20352C11.8308 9.89268 11.6565 10.5196 11.3077 11.0718C11.0877 11.4371 10.8095 11.7443 10.4816 11.9934C10.1121 12.2757 9.66372 12.475 9.16139 12.5788C8.65071 12.6867 8.09442 12.7407 7.50074 12.7407H1.66769V0.995838H7.88267C9.30667 1.01658 10.328 1.43591 10.9175 2.24131C11.2745 2.73536 11.453 3.3332 11.453 4.02651C11.453 4.73643 11.2704 5.31349 10.9133 5.74526C10.7099 5.98606 10.411 6.20609 10.0207 6.40535H10.0207ZM17.0037 3.00517C16.7961 3.00517 16.5927 3.01347 16.3976 3.03423H15.0774V1.20752H18.9425V3.03423H17.6223C17.4189 3.01763 17.2113 3.00517 17.0037 3.00517H17.0037ZM14.9445 9.0499C14.9818 9.93418 15.2933 10.5611 15.8745 10.9181C16.2274 11.1382 16.655 11.2503 17.149 11.2503C17.6763 11.2503 18.108 11.1133 18.436 10.8434C18.6145 10.6981 18.7723 10.4989 18.9051 10.2498H21.1802C21.1096 10.748 20.8315 11.2586 20.3457 11.7734C19.5735 12.612 18.4775 13.0355 17.0826 13.0355C15.9326 13.0355 14.903 12.6785 14.027 11.9685C13.151 11.2628 12.7068 10.092 12.7068 8.49779C12.7068 7.00321 13.1095 5.83662 13.8983 5.0395C14.5708 4.36278 15.4261 3.96837 16.4432 3.86457H17.5766C18.1038 3.91853 18.5937 4.04309 19.0379 4.24236C19.6399 4.51218 20.1423 4.94396 20.5325 5.52519C20.8854 6.03584 21.1179 6.64198 21.2217 7.31868C21.284 7.7172 21.3089 8.286 21.2964 9.01666H14.9444V9.0499H14.9445H14.9445ZM17.9129 10.1957C17.7302 10.3452 17.4811 10.4158 17.149 10.4158C16.8086 10.4158 16.5388 10.3494 16.3187 10.2123C16.2107 10.1459 16.0779 10.0463 15.97 9.847H18.1745C18.0914 10.0048 18.0042 10.121 17.9129 10.1957L17.9129 10.1957Z" fill="black"/>
</svg>
