<svg width="134" height="79" viewBox="0 0 134 79" fill="none" xmlns="http://www.w3.org/2000/svg">
<g filter="url(#filter0_d_216_357)">
<rect x="91.1995" y="11.5773" width="35.691" height="35.691" stroke="black" stroke-width="5.67811"/>
<path d="M38.9853 11.5509V19.0966C38.9853 19.9597 39.1765 20.6193 39.5587 21.0755C39.9532 21.5317 40.5204 21.7598 41.2602 21.7598C41.9999 21.7598 42.5609 21.5317 42.9431 21.0755C43.3377 20.6193 43.535 19.9597 43.535 19.0966V11.5509H46.6975V19.0966C46.6975 20.3296 46.4571 21.3714 45.9762 22.2222C45.4954 23.0606 44.8357 23.6956 43.9973 24.1271C43.1712 24.5463 42.2342 24.7559 41.1862 24.7559C40.1382 24.7559 39.2134 24.5463 38.412 24.1271C37.6106 23.7079 36.9818 23.0729 36.5256 22.2222C36.0694 21.3714 35.8413 20.3296 35.8413 19.0966V11.5509H38.9853ZM58.206 20.9461C58.206 21.6365 58.0272 22.2715 57.6696 22.851C57.3244 23.4305 56.8065 23.8929 56.1161 24.2381C55.438 24.5833 54.6119 24.7559 53.6378 24.7559C52.1706 24.7559 50.9623 24.3984 50.0129 23.6832C49.0635 22.9681 48.5457 21.9694 48.4594 20.6872H51.8254C51.8747 21.1803 52.0473 21.5687 52.3432 21.8523C52.6515 22.1359 53.0398 22.2777 53.5084 22.2777C53.9153 22.2777 54.2358 22.1667 54.4701 21.9448C54.7043 21.7228 54.8215 21.4269 54.8215 21.057C54.8215 20.7241 54.7105 20.4467 54.4886 20.2248C54.279 20.0029 54.0139 19.8241 53.6933 19.6885C53.3727 19.5405 52.9289 19.3679 52.3617 19.1706C51.5356 18.887 50.8575 18.6158 50.3273 18.3569C49.8095 18.0856 49.3595 17.6911 48.9772 17.1732C48.6074 16.643 48.4224 15.9587 48.4224 15.1203C48.4224 14.3436 48.6197 13.6716 49.0142 13.1044C49.4088 12.5373 49.9513 12.1057 50.6417 11.8098C51.3445 11.5016 52.146 11.3475 53.046 11.3475C54.5009 11.3475 55.6537 11.6927 56.5045 12.3832C57.3675 13.0736 57.8546 14.023 57.9655 15.2313H54.5441C54.4824 14.7998 54.3221 14.4607 54.0632 14.2141C53.8166 13.9552 53.4776 13.8257 53.046 13.8257C52.6761 13.8257 52.3741 13.9244 52.1398 14.1216C51.9179 14.3189 51.8069 14.6087 51.8069 14.9909C51.8069 15.2991 51.9055 15.5642 52.1028 15.7861C52.3124 15.9957 52.5713 16.1683 52.8796 16.304C53.1878 16.4396 53.6317 16.6122 54.2112 16.8218C55.0496 17.1054 55.7339 17.389 56.264 17.6726C56.7942 17.9438 57.2504 18.3445 57.6326 18.8747C58.0148 19.4049 58.206 20.0953 58.206 20.9461ZM63.1169 14.0661V16.8033H67.5371V19.1891H63.1169V22.0927H68.0919V24.6265H59.9544V11.5509H68.0919V14.0661H63.1169ZM76.6014 24.6265L73.7718 19.6885H73.0505V24.6265H69.8879V11.5509H75.2883C76.324 11.5509 77.1994 11.7297 77.9145 12.0872C78.6296 12.4448 79.166 12.938 79.5235 13.5668C79.8811 14.1833 80.0599 14.8922 80.0599 15.6937C80.0599 16.643 79.7948 17.4506 79.2646 18.1164C78.7468 18.7822 77.9885 19.2384 76.9898 19.485L80.0969 24.6265H76.6014ZM73.0505 17.5246H75.0109C75.6397 17.5246 76.1021 17.389 76.398 17.1177C76.6939 16.8341 76.8418 16.4211 76.8418 15.8786C76.8418 15.3608 76.6877 14.9539 76.3795 14.658C76.0836 14.3621 75.6274 14.2141 75.0109 14.2141H73.0505V17.5246Z" fill="black"/>
<path d="M6.98506 42.5893V44.5101H10.0869V46.1843H6.98506V48.2219H10.4763V50H4.76573V40.8242H10.4763V42.5893H6.98506ZM17.3044 50L15.3706 47.1447L13.7094 50H11.1656L14.0987 45.2758L11.0747 40.8242H13.7094L15.5913 43.5886L17.2136 40.8242H19.7444L16.8502 45.4445L19.9391 50H17.3044ZM23.0181 46.7813V50H20.7988V40.8242H24.3938C25.484 40.8242 26.3147 41.0967 26.8857 41.6418C27.4568 42.1783 27.7423 42.9051 27.7423 43.8222C27.7423 44.3933 27.6125 44.9038 27.353 45.3537C27.102 45.795 26.7257 46.1454 26.2238 46.4049C25.722 46.6559 25.112 46.7813 24.3938 46.7813H23.0181ZM24.1473 45.0033C25.0385 45.0033 25.484 44.6096 25.484 43.8222C25.484 43.0175 25.0385 42.6152 24.1473 42.6152H23.0181V45.0033H24.1473ZM31.0537 42.5893V44.5101H34.1555V46.1843H31.0537V48.2219H34.5449V50H28.8343V40.8242H34.5449V42.5893H31.0537ZM33.5585 38.9682L30.4307 40.305V38.7995L33.5585 37.294V38.9682ZM40.5164 50L38.5307 46.5347H38.0246V50H35.8052V40.8242H39.595C40.3218 40.8242 40.9361 40.9496 41.4379 41.2005C41.9398 41.4515 42.3161 41.7976 42.5671 42.2388C42.818 42.6715 42.9434 43.169 42.9434 43.7314C42.9434 44.3976 42.7574 44.9643 42.3854 45.4316C42.022 45.8988 41.4898 46.2189 40.789 46.392L42.9694 50H40.5164ZM38.0246 45.0162H39.4003C39.8416 45.0162 40.166 44.9211 40.3737 44.7307C40.5813 44.5317 40.6852 44.2419 40.6852 43.8612C40.6852 43.4978 40.577 43.2122 40.3607 43.0046C40.153 42.7969 39.8329 42.6931 39.4003 42.6931H38.0246V45.0162ZM46.2756 40.8242V50H44.0562V40.8242H46.2756ZM50.0272 42.5893V44.5101H53.129V46.1843H50.0272V48.2219H53.5184V50H47.8078V40.8242H53.5184V42.5893H50.0272ZM62.9293 50H60.7099L56.9981 44.3673V50H54.7787V40.8242H56.9981L60.7099 46.5088V40.8242H62.9293V50ZM68.654 40.7333C69.8221 40.7333 70.7868 41.0405 71.5482 41.6548C72.3183 42.2691 72.8158 43.0997 73.0408 44.1467H70.6917C70.5186 43.7227 70.2504 43.3896 69.887 43.1473C69.5322 42.9051 69.1083 42.7839 68.6151 42.7839C67.9662 42.7839 67.4427 43.0219 67.0447 43.4978C66.6467 43.9736 66.4477 44.6096 66.4477 45.4056C66.4477 46.2016 66.6467 46.8376 67.0447 47.3134C67.4427 47.7807 67.9662 48.0143 68.6151 48.0143C69.1083 48.0143 69.5322 47.8932 69.887 47.6509C70.2504 47.4086 70.5186 47.0798 70.6917 46.6645H73.0408C72.8158 47.7028 72.3183 48.5334 71.5482 49.1564C70.7868 49.7707 69.8221 50.0779 68.654 50.0779C67.7628 50.0779 66.9798 49.8832 66.3049 49.4938C65.63 49.0958 65.1066 48.5421 64.7345 47.8326C64.3711 47.1231 64.1894 46.3141 64.1894 45.4056C64.1894 44.4971 64.3711 43.6881 64.7345 42.9786C65.1066 42.2691 65.63 41.7197 66.3049 41.3303C66.9798 40.9323 67.7628 40.7333 68.654 40.7333ZM76.5039 42.5893V44.5101H79.6058V46.1843H76.5039V48.2219H79.9951V50H74.2846V40.8242H79.9951V42.5893H76.5039Z" fill="black"/>
<path d="M96.3104 65.0296C96.3104 65.8227 96.1388 66.5281 95.7956 67.1458C95.4601 67.7558 94.9721 68.2324 94.3315 68.5756C93.6985 68.9188 92.9512 69.0903 92.0895 69.0903H89.0354V61.0032H92.0895C92.9588 61.0032 93.71 61.1709 94.3429 61.5065C94.9759 61.842 95.4601 62.3148 95.7956 62.9249C96.1388 63.5349 96.3104 64.2365 96.3104 65.0296ZM91.9179 67.3402C92.6805 67.3402 93.2715 67.1381 93.6909 66.734C94.118 66.3298 94.3315 65.7617 94.3315 65.0296C94.3315 64.2975 94.118 63.7294 93.6909 63.3252C93.2715 62.9211 92.6805 62.719 91.9179 62.719H90.9914V67.3402H91.9179ZM99.3805 62.5588V64.2518H102.114V65.7274H99.3805V67.5232H102.458V69.0903H97.4245V61.0032H102.458V62.5588H99.3805ZM109.379 66.814C109.379 67.2411 109.269 67.6338 109.047 67.9922C108.834 68.3506 108.514 68.6366 108.087 68.8501C107.667 69.0636 107.156 69.1704 106.554 69.1704C105.646 69.1704 104.899 68.9493 104.312 68.507C103.725 68.0647 103.404 67.447 103.351 66.6539H105.433C105.463 66.9589 105.57 67.1991 105.753 67.3745C105.944 67.5499 106.184 67.6376 106.474 67.6376C106.725 67.6376 106.924 67.569 107.069 67.4317C107.213 67.2945 107.286 67.1114 107.286 66.8827C107.286 66.6768 107.217 66.5052 107.08 66.3679C106.95 66.2307 106.786 66.1201 106.588 66.0362C106.39 65.9447 106.115 65.8379 105.765 65.7159C105.254 65.5405 104.834 65.3727 104.506 65.2126C104.186 65.0448 103.908 64.8008 103.671 64.4805C103.443 64.1526 103.328 63.7294 103.328 63.2108C103.328 62.7304 103.45 62.3148 103.694 61.964C103.938 61.6132 104.274 61.3463 104.701 61.1633C105.135 60.9727 105.631 60.8773 106.188 60.8773C107.088 60.8773 107.801 61.0909 108.327 61.5179C108.861 61.9449 109.162 62.5321 109.23 63.2795H107.114C107.076 63.0126 106.977 62.8029 106.817 62.6503C106.664 62.4902 106.455 62.4101 106.188 62.4101C105.959 62.4101 105.772 62.4711 105.627 62.5931C105.49 62.7152 105.421 62.8944 105.421 63.1308C105.421 63.3214 105.482 63.4854 105.604 63.6226C105.734 63.7523 105.894 63.859 106.085 63.9429C106.275 64.0268 106.55 64.1336 106.908 64.2632C107.427 64.4386 107.85 64.614 108.178 64.7894C108.506 64.9571 108.788 65.205 109.025 65.5329C109.261 65.8608 109.379 66.2878 109.379 66.814ZM112.417 61.0032V69.0903H110.461V61.0032H112.417ZM117.553 60.9231C118.568 60.9231 119.403 61.1709 120.058 61.6666C120.714 62.1623 121.122 62.8334 121.282 63.6798H119.212C119.075 63.39 118.865 63.1613 118.583 62.9935C118.301 62.8181 117.961 62.7304 117.565 62.7304C116.947 62.7304 116.451 62.9401 116.078 63.3595C115.704 63.7713 115.517 64.3318 115.517 65.041C115.517 65.8112 115.712 66.4022 116.101 66.814C116.497 67.2258 117.058 67.4317 117.782 67.4317C118.247 67.4317 118.655 67.3059 119.006 67.0542C119.357 66.795 119.605 66.4289 119.75 65.9561H117.279V64.5492H121.385V66.4823C121.233 66.9551 120.989 67.3936 120.653 67.7978C120.318 68.2019 119.887 68.5298 119.361 68.7815C118.842 69.0331 118.247 69.159 117.576 69.159C116.76 69.159 116.047 68.9874 115.437 68.6442C114.827 68.2934 114.354 67.8054 114.019 67.1801C113.691 66.5548 113.527 65.8417 113.527 65.041C113.527 64.2403 113.691 63.5273 114.019 62.902C114.354 62.2767 114.823 61.7924 115.426 61.4493C116.036 61.0985 116.745 60.9231 117.553 60.9231ZM129.664 69.0903H127.708L124.436 64.1259V69.0903H122.48V61.0032H124.436L127.708 66.0133V61.0032H129.664V69.0903Z" fill="black"/>
<rect x="4" y="11.9829" width="25.1459" height="12.9785" fill="black"/>
<rect x="4" y="62.0127" width="77.0601" height="8.11159" fill="black"/>
</g>
<defs>
<filter id="filter0_d_216_357" x="0" y="8.73828" width="133.73" height="69.3862" filterUnits="userSpaceOnUse" color-interpolation-filters="sRGB">
<feFlood flood-opacity="0" result="BackgroundImageFix"/>
<feColorMatrix in="SourceAlpha" type="matrix" values="0 0 0 0 0 0 0 0 0 0 0 0 0 0 0 0 0 0 127 0" result="hardAlpha"/>
<feOffset dy="4"/>
<feGaussianBlur stdDeviation="2"/>
<feComposite in2="hardAlpha" operator="out"/>
<feColorMatrix type="matrix" values="0 0 0 0 0 0 0 0 0 0 0 0 0 0 0 0 0 0 0.25 0"/>
<feBlend mode="normal" in2="BackgroundImageFix" result="effect1_dropShadow_216_357"/>
<feBlend mode="normal" in="SourceGraphic" in2="effect1_dropShadow_216_357" result="shape"/>
</filter>
</defs>
</svg>
