<svg width="19" height="15" viewBox="0 0 19 15" fill="none" xmlns="http://www.w3.org/2000/svg">
<path d="M18.5874 7.29847C18.5874 7.25316 18.5874 7.20167 18.5854 7.14194C18.5833 6.97511 18.5792 6.78769 18.5751 6.58791C18.5586 6.01329 18.5297 5.44072 18.4844 4.90111C18.4226 4.1576 18.332 3.53767 18.2084 3.0722C18.078 2.58645 17.8224 2.14343 17.4671 1.78743C17.1119 1.43143 16.6694 1.17491 16.1839 1.04351C15.601 0.886986 14.46 0.790185 12.8535 0.730457C12.0894 0.701623 11.2718 0.683087 10.4541 0.672789C10.1678 0.66867 9.90215 0.66661 9.66324 0.664551H9.05772C8.81881 0.66661 8.55312 0.66867 8.26684 0.672789C7.44918 0.683087 6.63153 0.701623 5.86742 0.730457C4.26095 0.792245 3.11788 0.889045 2.53708 1.04351C2.05143 1.17458 1.60876 1.43099 1.25343 1.78705C0.898101 2.1431 0.642592 2.58629 0.512508 3.0722C0.386874 3.53767 0.298312 4.1576 0.236524 4.90111C0.191213 5.44072 0.162379 6.01329 0.145902 6.58791C0.139724 6.78769 0.137664 6.97511 0.135604 7.14194C0.135604 7.20167 0.133545 7.25316 0.133545 7.29847V7.4138C0.133545 7.45912 0.133545 7.51061 0.135604 7.57033C0.137664 7.73716 0.141783 7.92458 0.145902 8.12436C0.162379 8.69898 0.191213 9.27155 0.236524 9.81116C0.298312 10.5547 0.388933 11.1746 0.512508 11.6401C0.776135 12.6266 1.55054 13.4051 2.53708 13.6688C3.11788 13.8253 4.26095 13.9221 5.86742 13.9818C6.63153 14.0106 7.44918 14.0292 8.26684 14.0395C8.55312 14.0436 8.81881 14.0457 9.05772 14.0477H9.66324C9.90215 14.0457 10.1678 14.0436 10.4541 14.0395C11.2718 14.0292 12.0894 14.0106 12.8535 13.9818C14.46 13.92 15.6031 13.8232 16.1839 13.6688C17.1704 13.4051 17.9448 12.6287 18.2084 11.6401C18.3341 11.1746 18.4226 10.5547 18.4844 9.81116C18.5297 9.27155 18.5586 8.69898 18.5751 8.12436C18.5812 7.92458 18.5833 7.73716 18.5854 7.57033C18.5854 7.51061 18.5874 7.45912 18.5874 7.4138V7.29847ZM17.1045 7.40557C17.1045 7.44882 17.1045 7.49619 17.1024 7.5518C17.1004 7.71244 17.0963 7.88957 17.0922 8.08111C17.0777 8.62896 17.0489 9.17681 17.0056 9.68552C16.95 10.3487 16.8718 10.8924 16.775 11.257C16.6473 11.7328 16.2724 12.1097 15.7987 12.2353C15.3662 12.3506 14.2767 12.4433 12.7959 12.4989C12.0462 12.5277 11.2388 12.5463 10.4335 12.5566C10.1514 12.5607 9.88979 12.5628 9.655 12.5628H9.06596L8.28743 12.5566C7.48214 12.5463 6.67684 12.5277 5.92509 12.4989C4.44425 12.4412 3.35267 12.3506 2.92222 12.2353C2.44852 12.1076 2.07367 11.7328 1.94598 11.257C1.84918 10.8924 1.77091 10.3487 1.7153 9.68552C1.67205 9.17681 1.64528 8.62896 1.6288 8.08111C1.62262 7.88957 1.62056 7.71038 1.6185 7.5518C1.6185 7.49619 1.61644 7.44676 1.61644 7.40557V7.30671C1.61644 7.26346 1.61644 7.21608 1.6185 7.16048C1.62056 6.99983 1.62468 6.8227 1.6288 6.63116C1.64322 6.08331 1.67205 5.53546 1.7153 5.02675C1.77091 4.36356 1.84918 3.81983 1.94598 3.45529C2.07367 2.97952 2.44852 2.60262 2.92222 2.47698C3.35473 2.36165 4.44425 2.26897 5.92509 2.21336C6.67478 2.18452 7.48214 2.16599 8.28743 2.15569C8.5696 2.15157 8.83116 2.14951 9.06596 2.14951H9.655L10.4335 2.15569C11.2388 2.16599 12.0441 2.18452 12.7959 2.21336C14.2767 2.27103 15.3683 2.36165 15.7987 2.47698C16.2724 2.60468 16.6473 2.97952 16.775 3.45529C16.8718 3.81983 16.95 4.36356 17.0056 5.02675C17.0489 5.53546 17.0757 6.08331 17.0922 6.63116C17.0983 6.8227 17.1004 7.00189 17.1024 7.16048C17.1024 7.21608 17.1045 7.26551 17.1045 7.30671V7.40557ZM7.52745 10.116L12.3057 7.33554L7.52745 4.59629V10.116Z" fill="black"/>
</svg>
